<svg width="100" height="101" viewBox="0 0 100 101" fill="none" xmlns="http://www.w3.org/2000/svg">
<path d="M99.5391 50.1667C96.3151 50.1745 93.1224 49.8672 89.9583 49.2422C86.7969 48.6172 83.7266 47.6875 80.7474 46.4557C77.7682 45.2214 74.9401 43.7083 72.263 41.9141C69.5833 40.1172 67.1068 38.0781 64.8333 35.7917C62.5495 33.5182 60.5078 31.0417 58.7135 28.3646C56.9193 25.6849 55.4062 22.8568 54.1719 19.8802C52.9375 16.901 52.0104 13.8307 51.3854 10.6667C50.7604 7.50521 50.4531 4.3099 50.4609 1.08594C50.4609 0.960938 50.4167 0.851563 50.3255 0.760417C50.237 0.671875 50.1276 0.625 50 0.625C49.8724 0.625 49.7656 0.671875 49.6745 0.760417C49.5833 0.851563 49.5391 0.960938 49.5391 1.08594C49.5469 4.3099 49.2396 7.50521 48.6146 10.6667C47.9922 13.8307 47.0625 16.901 45.8281 19.8802C44.5938 22.8568 43.0807 25.6849 41.2865 28.3646C39.4922 31.0417 37.4505 33.5182 35.1667 35.7917C32.8932 38.0781 30.4167 40.1172 27.7396 41.9141C25.0599 43.7083 22.2318 45.2214 19.2526 46.4557C16.276 47.6875 13.2031 48.6172 10.0417 49.2422C6.8776 49.8672 3.6849 50.1745 0.460938 50.1667C0.333334 50.1667 0.223958 50.2109 0.135417 50.2995C0.0442707 50.3906 0 50.5 0 50.625C0 50.7526 0.0442707 50.862 0.135417 50.9531C0.223958 51.0417 0.333334 51.0859 0.460938 51.0859C3.6849 51.0781 6.8776 51.3854 10.0417 52.0104C13.2031 52.6354 16.2734 53.5651 19.2526 54.7995C22.2318 56.0312 25.0599 57.5469 27.737 59.3411C30.4167 61.1354 32.8932 63.1745 35.1667 65.4609C37.4505 67.7344 39.4922 70.2109 41.2865 72.888C43.0807 75.5677 44.5938 78.3958 45.8281 81.3724C47.0625 84.3516 47.9922 87.4219 48.6146 90.5859C49.2396 93.7474 49.5469 96.9427 49.5391 100.167C49.5391 100.292 49.5833 100.401 49.6745 100.492C49.7656 100.581 49.8724 100.625 50 100.625C50.1276 100.625 50.237 100.581 50.3255 100.492C50.4167 100.401 50.4609 100.292 50.4609 100.167C50.4609 73.1042 72.4766 51.0859 99.5391 51.0859C99.6667 51.0859 99.776 51.0417 99.8646 50.9531C99.9557 50.862 100 50.7526 100 50.625C100 50.5 99.9557 50.3906 99.8646 50.2995C99.776 50.2109 99.6667 50.1667 99.5391 50.1667ZM50 93.3464C49.638 90.6589 49.0573 88.0234 48.263 85.4323C47.4688 82.8411 46.4661 80.3333 45.2604 77.9062C44.0547 75.4818 42.6589 73.1693 41.0755 70.9714C39.4896 68.7734 37.737 66.7188 35.8151 64.8073C33.9062 62.888 31.8542 61.1354 29.6562 59.5521C27.4609 57.9688 25.151 56.5729 22.7266 55.3672C20.3021 54.1615 17.7943 53.1615 15.2083 52.3672C12.6198 51.5703 9.98177 50.9896 7.29948 50.625C9.98438 50.263 12.6198 49.6823 15.2083 48.8854C17.7969 48.0911 20.3021 47.0911 22.7292 45.8854C25.1536 44.6771 27.4635 43.2839 29.6589 41.6979C31.8568 40.1146 33.9089 38.362 35.8177 36.4427C37.7396 34.5339 39.4896 32.4792 41.0755 30.2839C42.6589 28.0885 44.0521 25.776 45.2578 23.3516C46.4661 20.9271 47.4661 18.4219 48.2604 15.8333C49.0573 13.2448 49.6354 10.6094 50 7.92708C50.3646 10.6094 50.9453 13.2448 51.7396 15.8333C52.5339 18.4219 53.5365 20.9271 54.7422 23.3516C55.9479 25.776 57.3411 28.0885 58.9271 30.2839C60.5104 32.4792 62.263 34.5339 64.1823 36.4427C66.0938 38.3646 68.1458 40.1172 70.3438 41.7005C72.5417 43.2865 74.8542 44.6823 77.2812 45.888C79.7083 47.0938 82.2161 48.0938 84.8073 48.888C87.3958 49.6849 90.0339 50.263 92.7188 50.625C70.5938 53.6615 53.0339 71.2214 50 93.3464Z" fill="white"/>
</svg>
