<svg width="100" height="101" viewBox="0 0 100 101" fill="none" xmlns="http://www.w3.org/2000/svg">
<path d="M99.7494 49.0512C99.5826 48.9808 99.4341 49.0095 99.3065 49.1371L83.8618 64.5818V33.286C83.8618 33.1063 83.7758 32.9812 83.6091 32.9135C83.4424 32.8431 83.2939 32.8718 83.1662 32.9995L67.7215 48.4441V17.1484C67.7085 16.979 67.6225 16.8618 67.4662 16.8019C67.3073 16.7393 67.1666 16.7654 67.0415 16.88L51.5969 32.3247V1.02893C51.5917 0.851763 51.5083 0.72931 51.3468 0.661571C51.1826 0.593831 51.0367 0.619885 50.9091 0.742337L0.117337 51.5549C-0.00511568 51.6826 -0.0311689 51.8285 0.0365705 51.99C0.10431 52.1542 0.226763 52.2375 0.403928 52.2401H31.6814L16.255 67.6848C16.1273 67.8124 16.0987 67.9609 16.1664 68.1277C16.2368 68.2944 16.3618 68.3778 16.5416 68.3778H47.8139L32.3823 83.8224C32.2546 83.9527 32.2259 84.0986 32.2937 84.2654C32.364 84.4321 32.4865 84.5155 32.6689 84.5155H63.9464L48.5121 99.9601C48.3871 100.09 48.3558 100.236 48.4262 100.403C48.4939 100.57 48.6189 100.653 48.7987 100.653H99.5931C99.7051 100.653 99.8015 100.614 99.8796 100.536C99.9604 100.455 99.9995 100.361 99.9995 100.247V49.442C100.007 49.2544 99.9239 49.1241 99.7494 49.0512ZM1.38615 51.4273L50.7918 2.01115V33.1375L32.4943 51.4273H1.38615ZM50.7918 34.2709V51.4273H33.6433L50.7918 34.2709ZM17.5186 67.5675L32.8304 52.2401H51.1983C51.3103 52.2401 51.4067 52.201 51.4849 52.1229C51.5656 52.0421 51.6047 51.9457 51.6047 51.8337V33.4658L66.9243 18.141V49.2648L48.632 67.5675H17.5186ZM66.9243 50.4112V67.5649H49.7757L66.9243 50.4112ZM33.6485 83.7L48.9629 68.3804H67.3307C67.4428 68.3804 67.5366 68.3413 67.6173 68.2606C67.6955 68.1824 67.7372 68.086 67.7372 67.974V49.5983L83.0542 34.2709V65.3947L64.7644 83.7H33.6485ZM83.0542 66.5462V83.7H65.9082L83.0542 66.5462ZM99.1866 99.8325H49.7888L65.1005 84.5129H83.4606C83.5726 84.5129 83.669 84.4738 83.7498 84.393C83.8279 84.3149 83.867 84.2185 83.867 84.1064V65.7334L99.1866 50.4112V99.8325Z" fill="white"/>
</svg>
